<svg width="24" height="26" viewBox="0 0 24 26" fill="none" xmlns="http://www.w3.org/2000/svg">
<path d="M1.84141 12.7656C1.84141 15.7238 3.01414 18.3927 4.86584 20.3113C4.94814 20.397 5.06129 20.397 5.12302 20.3006L5.2156 20.1719C5.28761 20.0969 5.2979 20.0004 5.20532 19.9147C3.44621 18.0819 2.33519 15.5523 2.33519 12.7656C2.33519 7.27776 6.69696 2.70103 11.9949 2.70103C17.2928 2.70103 21.6545 7.27776 21.6545 12.7656C21.6545 15.5523 20.5538 18.0819 18.7844 19.904C18.7021 20.0004 18.7021 20.0969 18.7741 20.1719L18.877 20.2898C18.949 20.3863 19.0416 20.397 19.1239 20.3006C20.9859 18.4034 22.1586 15.7238 22.1586 12.7656C22.1586 6.96693 17.6014 2.18654 11.9949 2.18654C6.39863 2.18654 1.84141 6.96693 1.84141 12.7656ZM4.83498 12.7656C4.83498 14.7913 5.60652 16.6134 6.87184 17.964C6.94385 18.0604 7.03643 18.0604 7.11873 17.9532L7.21132 17.8353C7.28333 17.7389 7.28333 17.6531 7.20103 17.5781C6.04886 16.3133 5.34934 14.6306 5.34934 12.7656C5.34934 8.97126 8.34291 5.8415 11.9949 5.8415C15.6468 5.8415 18.6507 8.97126 18.6507 12.7656C18.6507 14.6306 17.9511 16.3133 16.7887 17.5674C16.7167 17.6531 16.727 17.7496 16.7887 17.8353L16.8813 17.9532C16.9533 18.039 17.0562 18.039 17.1384 17.964C18.3832 16.6242 19.165 14.7913 19.165 12.7656C19.165 8.68187 15.9451 5.30559 11.9949 5.30559C8.04458 5.30559 4.83498 8.68187 4.83498 12.7656ZM7.82855 12.7656C7.82855 13.8481 8.20917 14.8449 8.85727 15.6059C8.91899 15.6917 9.03215 15.6917 9.10416 15.5952L9.19674 15.4666C9.25847 15.3808 9.25847 15.2951 9.19674 15.1986C8.6721 14.5555 8.34291 13.6873 8.34291 12.7656C8.34291 10.6862 9.99914 8.96054 11.9949 8.96054C14.0009 8.96054 15.6571 10.6862 15.6571 12.7656C15.6571 13.6873 15.3279 14.5555 14.793 15.2093C14.721 15.3058 14.721 15.3808 14.7827 15.4773L14.8856 15.6059C14.9473 15.6917 15.0604 15.7024 15.1324 15.6274C15.7805 14.8449 16.1612 13.8588 16.1612 12.7656C16.1612 10.3861 14.2889 8.42463 11.9949 8.42463C9.70081 8.42463 7.82855 10.3861 7.82855 12.7656ZM5.52422 22.7015C5.40077 22.8408 5.46249 23.0766 5.66824 23.0766H18.2495C18.4552 23.0766 18.5169 22.8408 18.3832 22.7015L12.18 15.3808C12.0566 15.2522 11.8508 15.2522 11.7377 15.3808L5.52422 22.7015Z" fill="#A1A1AA" stroke="#A1A1AA"/>
</svg>
