<svg width="29" height="16" viewBox="0 0 29 16" fill="none" xmlns="http://www.w3.org/2000/svg">
<g clip-path="url(#clip0_1_12)">
<path d="M13.2303 15.9669C13.76 15.9669 14.2897 15.5807 14.2897 14.6869V8.33103C14.3779 8.57379 14.5545 8.76138 14.7862 8.89379L26.3062 15.669C26.549 15.8124 26.88 15.9669 27.1779 15.9669C27.7076 15.9669 28.2372 15.5807 28.2372 14.6869V1.32414C28.2372 0.41931 27.7076 0.0331035 27.1779 0.0331035C26.88 0.0331035 26.56 0.187586 26.3062 0.331035L14.7862 7.10621C14.5434 7.24965 14.3669 7.41517 14.2897 7.6469V1.32414C14.2897 0.41931 13.76 0.0331035 13.2303 0.0331035C12.9324 0.0331035 12.6124 0.187586 12.3586 0.331035L0.83862 7.10621C0.485516 7.31586 0.286896 7.56965 0.286896 7.98897C0.286896 8.40828 0.507585 8.70621 0.83862 8.89379L12.3586 15.669C12.6014 15.8124 12.9324 15.9669 13.2303 15.9669Z" fill="#FAFAFA"/>
</g>
<defs>
<clipPath id="clip0_1_12">
<rect width="28.5241" height="16" fill="white"/>
</clipPath>
</defs>
</svg>
