<svg width="34" height="16" viewBox="0 0 34 16" fill="none" xmlns="http://www.w3.org/2000/svg">
<path d="M3.87311 15.9669C4.17104 15.9669 4.51311 15.8124 4.74483 15.669L16.2648 8.89379C16.4966 8.76138 16.6841 8.57379 16.7614 8.33103V14.6869C16.7614 15.5807 17.3021 15.9669 17.8317 15.9669C18.1186 15.9669 18.4607 15.8124 18.6924 15.669L30.2235 8.89379C30.5435 8.70621 30.7752 8.40828 30.7752 7.98897C30.7752 7.56965 30.5655 7.31586 30.2235 7.10621L18.6924 0.331035C18.4386 0.187586 18.1186 0.0331035 17.8317 0.0331035C17.3021 0.0331035 16.7614 0.41931 16.7614 1.32414V7.6469C16.6841 7.41517 16.5076 7.24965 16.2648 7.10621L4.74483 0.331035C4.49104 0.187586 4.17104 0.0331035 3.87311 0.0331035C3.34345 0.0331035 2.8138 0.41931 2.8138 1.32414V14.6869C2.8138 15.5807 3.34345 15.9669 3.87311 15.9669Z" fill="#FAFAFA"/>
</svg>
