<svg width="16" height="16" viewBox="0 0 16 16" fill="none" xmlns="http://www.w3.org/2000/svg">
<path d="M3.44863 15.619H5.54386C6.17544 15.619 6.42607 15.3584 6.42607 14.7268V1.27319C6.42607 0.631581 6.17544 0.380955 5.54386 0.380955H3.44863C2.80702 0.380955 2.5564 0.631581 2.5564 1.27319V14.7268C2.5564 15.3584 2.80702 15.619 3.44863 15.619ZM9.74437 15.619H11.8396C12.4812 15.619 12.7318 15.3584 12.7318 14.7268V1.27319C12.7318 0.631581 12.4812 0.380955 11.8396 0.380955H9.74437C9.11279 0.380955 8.86216 0.631581 8.86216 1.27319V14.7268C8.86216 15.3584 9.11279 15.619 9.74437 15.619Z" fill="#FAFAFA"/>
</svg>
